<svg xmlns="http://www.w3.org/2000/svg" width="133" height="35" viewBox="0 0 133 35" fill="none"><g clip-path="url(#clip0_519_67)"><path d="M42.3491 26.27C40.8491 26.27 39.5491 25.91 38.4491 25.19C37.3491 24.47 36.5091 23.49 35.9191 22.25C35.3291 21.01 35.0391 19.64 35.0391 18.14C35.0391 16.64 35.3591 15.24 36.0191 14.01C36.6691 12.78 37.5991 11.81 38.8191 11.08C40.0391 10.36 41.4991 10 43.2091 10C44.9191 10 46.2691 10.36 47.4491 11.07C48.6291 11.78 49.5391 12.75 50.1791 13.96C50.8191 15.18 51.1391 16.54 51.1391 18.04V25.9H48.3091V22.73H48.2491C47.9491 23.32 47.5291 23.88 47.0191 24.42C46.4991 24.96 45.8591 25.4 45.0891 25.75C44.3191 26.1 43.4091 26.27 42.3791 26.27H42.3491ZM43.0791 23.86C44.0991 23.86 44.9891 23.61 45.7791 23.11C46.5591 22.61 47.1691 21.92 47.6091 21.04C48.0491 20.16 48.2691 19.17 48.2691 18.07C48.2691 16.97 48.0591 16.03 47.6491 15.18C47.2291 14.33 46.6391 13.65 45.8691 13.15C45.0991 12.65 44.1891 12.4 43.1591 12.4C42.0591 12.4 41.1191 12.65 40.3391 13.16C39.5591 13.67 38.9591 14.35 38.5391 15.22C38.1191 16.08 37.9191 17.06 37.9191 18.16C37.9191 19.26 38.1191 20.18 38.5291 21.04C38.9391 21.9 39.5291 22.59 40.2991 23.1C41.0691 23.61 42.0091 23.86 43.0991 23.86H43.0791Z" fill="white"></path><path d="M54.6606 25.9L59.9906 18.74C59.0306 18.42 58.2006 17.94 57.4806 17.32C56.7606 16.7 56.1906 15.97 55.7706 15.13C55.3506 14.29 55.1506 13.39 55.1506 12.43V10.36H57.9806V12.43C57.9806 13.18 58.1706 13.87 58.5606 14.5C58.9506 15.13 59.4606 15.64 60.1106 16.02C60.7606 16.41 61.4606 16.65 62.2106 16.75L66.9006 10.35H70.0106L64.9506 17.21C66.0106 17.51 66.9206 17.99 67.6806 18.63C68.4406 19.27 69.0406 20.03 69.4606 20.92C69.8806 21.81 70.1006 22.76 70.1006 23.8V25.9H67.3006V23.8C67.3006 22.99 67.1006 22.25 66.6906 21.59C66.2806 20.93 65.7306 20.39 65.0406 19.98C64.3506 19.56 63.5606 19.31 62.6606 19.23L57.7806 25.9H54.6406H54.6606Z" fill="white"></path><path d="M81.7498 25.9C80.0398 25.9 78.5298 25.58 77.2098 24.94C75.8898 24.3 74.8598 23.4 74.1198 22.23C73.3798 21.06 73.0098 19.7 73.0098 18.13C73.0098 16.56 73.3198 15.2 73.9498 13.97C74.5798 12.74 75.4498 11.77 76.5698 11.06C77.6898 10.35 78.9898 9.98999 80.4698 9.98999C82.0698 9.98999 83.4098 10.34 84.4798 11.03C85.5498 11.72 86.3398 12.65 86.8698 13.82C87.3998 14.99 87.6598 16.29 87.6598 17.74C87.6598 17.96 87.6598 18.2 87.6398 18.44C87.6298 18.68 87.5998 18.9 87.5598 19.08H75.9798C76.0798 20.04 76.3998 20.84 76.9198 21.5C77.4498 22.16 78.1198 22.66 78.9498 22.99C79.7698 23.33 80.6798 23.49 81.6798 23.49H85.7298V25.9H81.7398H81.7498ZM75.9598 17.09H84.8298C84.8298 16.7 84.7898 16.29 84.7098 15.86C84.6298 15.42 84.4898 15 84.2798 14.58C84.0798 14.16 83.8098 13.79 83.4698 13.45C83.1298 13.11 82.7198 12.85 82.2198 12.64C81.7198 12.44 81.1398 12.34 80.4698 12.34C79.7598 12.34 79.1298 12.48 78.5998 12.75C78.0598 13.02 77.5998 13.39 77.2098 13.85C76.8198 14.31 76.5298 14.82 76.3298 15.39C76.1298 15.96 75.9998 16.53 75.9598 17.1V17.09Z" fill="white"></path><path d="M106.371 26.27C104.791 26.27 103.381 25.91 102.171 25.19C100.951 24.47 99.9909 23.49 99.2809 22.26C98.5709 21.03 98.2109 19.65 98.2109 18.13C98.2109 16.61 98.5709 15.23 99.2809 14C99.9909 12.77 100.961 11.8 102.171 11.07C103.391 10.35 104.791 9.98999 106.371 9.98999C107.951 9.98999 109.361 10.35 110.591 11.07C111.821 11.79 112.781 12.77 113.481 14C114.181 15.23 114.531 16.61 114.531 18.13C114.531 19.65 114.181 21.03 113.481 22.26C112.781 23.49 111.811 24.46 110.591 25.19C109.361 25.91 107.951 26.27 106.371 26.27ZM106.401 23.86C107.461 23.86 108.381 23.61 109.171 23.1C109.961 22.59 110.581 21.91 111.031 21.04C111.481 20.18 111.701 19.21 111.701 18.13C111.701 17.05 111.481 16.08 111.031 15.22C110.581 14.36 109.961 13.67 109.171 13.16C108.381 12.65 107.451 12.4 106.401 12.4C105.351 12.4 104.381 12.65 103.581 13.16C102.781 13.67 102.151 14.35 101.711 15.22C101.261 16.08 101.041 17.05 101.041 18.13C101.041 19.21 101.261 20.18 101.711 21.04C102.161 21.9 102.781 22.59 103.581 23.1C104.381 23.61 105.321 23.86 106.401 23.86Z" fill="white"></path><path d="M1 12.02V26.45C1 27.68 1.67 28.82 2.75 29.42L8.43 32.57C10.14 33.52 12.21 33.5 13.9 32.52L24.29 26.52C25.98 25.54 27.02 23.74 27.02 21.79V10.26C27.02 7.65003 24.2 6.02002 21.94 7.31002L10.84 13.59C9.78 14.19 9.12 15.32 9.12 16.54V23.62C9.12 25.77 11.47 27.11 13.32 26L19.32 22.42C20.35 21.81 20.98 20.7 20.98 19.5V4.52002C20.98 1.81002 18.04 0.120025 15.7 1.49002L2.68 9.08002C1.64 9.69002 1 10.81 1 12.01V12.02Z" stroke="#00FC9C" stroke-width="2" stroke-miterlimit="10"></path><path d="M93.8991 3.65002V20.59C93.8991 21.38 94.0491 22.03 94.3591 22.54C94.6591 23.05 95.0591 23.3 95.5491 23.3H96.3591L96.3391 26.07H95.5391C94.6891 26.07 93.9291 25.84 93.2491 25.37C92.5791 24.9 92.0591 24.26 91.6791 23.44C91.2991 22.62 91.1191 21.67 91.1191 20.59V3.65002H93.8891H93.8991Z" fill="white"></path><path d="M131.711 13.29C131.091 12.25 130.241 11.45 129.151 10.87C128.061 10.29 126.811 10 125.391 10C123.971 10 122.741 10.29 121.641 10.87C121.391 11 121.161 11.14 120.941 11.3V10.01H118.141V25.92H120.941V16.96C120.941 16.03 121.151 15.22 121.561 14.54C121.981 13.86 122.521 13.34 123.211 12.97C123.891 12.6 124.621 12.42 125.391 12.42C126.161 12.42 126.891 12.6 127.571 12.97C128.251 13.34 128.801 13.86 129.221 14.54C129.641 15.22 129.841 16.03 129.841 16.96V25.92H132.641V16.93C132.641 15.55 132.331 14.34 131.711 13.3V13.29Z" fill="white"></path></g><defs><clipPath id="clip0_519_67"><rect width="132.64" height="34.27" fill="white"></rect></clipPath></defs></svg>